{
	"asset":{
		"generator":"Khronos glTF Blender I/O v4.0.44",
		"version":"2.0"
	},
	"scene":0,
	"scenes":[
		{
			"name":"Scene",
			"nodes":[
				0
			]
		}
	],
	"nodes":[
		{
			"mesh":0,
			"name":"Cube"
		}
	],
	"materials":[
		{
			"doubleSided":true,
			"name":"Material.001",
			"pbrMetallicRoughness":{
				"baseColorFactor":[
					0.16050195693969727,
					0.2166656106710434,
					0.2585451900959015,
					1
				],
				"metallicFactor":0,
				"roughnessFactor":0.5616844892501831
			}
		},
		{
			"doubleSided":true,
			"name":"Material.002",
			"pbrMetallicRoughness":{
				"baseColorFactor":[
					0.2969735860824585,
					0.37711620330810547,
					0.36810803413391113,
					1
				],
				"metallicFactor":0,
				"roughnessFactor":0.5
			}
		}
	],
	"meshes":[
		{
			"name":"Cube.001",
			"primitives":[
				{
					"attributes":{
						"POSITION":0,
						"NORMAL":1,
						"TEXCOORD_0":2
					},
					"indices":3,
					"material":0
				},
				{
					"attributes":{
						"POSITION":4,
						"NORMAL":5,
						"TEXCOORD_0":6
					},
					"indices":7,
					"material":1
				}
			]
		}
	],
	"accessors":[
		{
			"bufferView":0,
			"componentType":5126,
			"count":38,
			"max":[
				1.458193302154541,
				2.279653549194336,
				1.4056564569473267
			],
			"min":[
				-1.1693079471588135,
				-1,
				-1.6405408382415771
			],
			"type":"VEC3"
		},
		{
			"bufferView":1,
			"componentType":5126,
			"count":38,
			"type":"VEC3"
		},
		{
			"bufferView":2,
			"componentType":5126,
			"count":38,
			"type":"VEC2"
		},
		{
			"bufferView":3,
			"componentType":5123,
			"count":42,
			"type":"SCALAR"
		},
		{
			"bufferView":4,
			"componentType":5126,
			"count":10,
			"max":[
				1.458193302154541,
				2.279653549194336,
				1.1027437448501587
			],
			"min":[
				-1.1693079471588135,
				-1,
				-1.6405408382415771
			],
			"type":"VEC3"
		},
		{
			"bufferView":5,
			"componentType":5126,
			"count":10,
			"type":"VEC3"
		},
		{
			"bufferView":6,
			"componentType":5126,
			"count":10,
			"type":"VEC2"
		},
		{
			"bufferView":7,
			"componentType":5123,
			"count":12,
			"type":"SCALAR"
		}
	],
	"bufferViews":[
		{
			"buffer":0,
			"byteLength":456,
			"byteOffset":0,
			"target":34962
		},
		{
			"buffer":0,
			"byteLength":456,
			"byteOffset":456,
			"target":34962
		},
		{
			"buffer":0,
			"byteLength":304,
			"byteOffset":912,
			"target":34962
		},
		{
			"buffer":0,
			"byteLength":84,
			"byteOffset":1216,
			"target":34963
		},
		{
			"buffer":0,
			"byteLength":120,
			"byteOffset":1300,
			"target":34962
		},
		{
			"buffer":0,
			"byteLength":120,
			"byteOffset":1420,
			"target":34962
		},
		{
			"buffer":0,
			"byteLength":80,
			"byteOffset":1540,
			"target":34962
		},
		{
			"buffer":0,
			"byteLength":24,
			"byteOffset":1620,
			"target":34963
		}
	],
	"buffers":[
		{
			"byteLength":1644,
			"uri":"stone1.bin"
		}
	]
}
