{
	"asset":{
		"generator":"Khronos glTF Blender I/O v4.1.63",
		"version":"2.0"
	},
	"scene":0,
	"scenes":[
		{
			"name":"Scene",
			"nodes":[
				0,
				1
			]
		}
	],
	"nodes":[
		{
			"mesh":0,
			"name":"Plane.001",
			"rotation":[
				0.5,
				-0.5,
				0.5,
				0.5
			],
			"scale":[
				18.75,
				18.75,
				18.75
			]
		},
		{
			"mesh":1,
			"name":"Plane.002",
			"rotation":[
				0.5,
				-0.5,
				0.5,
				0.5
			],
			"scale":[
				18.75,
				18.75,
				18.75
			]
		}
	],
	"meshes":[
		{
			"name":"Plane.001",
			"primitives":[
				{
					"attributes":{
						"POSITION":0,
						"NORMAL":1,
						"TEXCOORD_0":2
					},
					"indices":3
				}
			]
		},
		{
			"name":"Plane.002",
			"primitives":[
				{
					"attributes":{
						"POSITION":4,
						"NORMAL":5,
						"TEXCOORD_0":6
					},
					"indices":7
				}
			]
		}
	],
	"accessors":[
		{
			"bufferView":0,
			"componentType":5126,
			"count":28,
			"max":[
				0.9900327920913696,
				0.1600000411272049,
				0.000431193970143795
			],
			"min":[
				0.5687228441238403,
				-0.1600000560283661,
				-0.7076897621154785
			],
			"type":"VEC3"
		},
		{
			"bufferView":1,
			"componentType":5126,
			"count":28,
			"type":"VEC3"
		},
		{
			"bufferView":2,
			"componentType":5126,
			"count":28,
			"type":"VEC2"
		},
		{
			"bufferView":3,
			"componentType":5123,
			"count":54,
			"type":"SCALAR"
		},
		{
			"bufferView":4,
			"componentType":5126,
			"count":3290,
			"max":[
				0.9999998807907104,
				0.9999994039535522,
				0.001000043237581849
			],
			"min":[
				-0.999998927116394,
				-1.0000004768371582,
				-1.7983722686767578
			],
			"type":"VEC3"
		},
		{
			"bufferView":5,
			"componentType":5126,
			"count":3290,
			"type":"VEC3"
		},
		{
			"bufferView":6,
			"componentType":5126,
			"count":3290,
			"type":"VEC2"
		},
		{
			"bufferView":7,
			"componentType":5123,
			"count":5760,
			"type":"SCALAR"
		}
	],
	"bufferViews":[
		{
			"buffer":0,
			"byteLength":336,
			"byteOffset":0,
			"target":34962
		},
		{
			"buffer":0,
			"byteLength":336,
			"byteOffset":336,
			"target":34962
		},
		{
			"buffer":0,
			"byteLength":224,
			"byteOffset":672,
			"target":34962
		},
		{
			"buffer":0,
			"byteLength":108,
			"byteOffset":896,
			"target":34963
		},
		{
			"buffer":0,
			"byteLength":39480,
			"byteOffset":1004,
			"target":34962
		},
		{
			"buffer":0,
			"byteLength":39480,
			"byteOffset":40484,
			"target":34962
		},
		{
			"buffer":0,
			"byteLength":26320,
			"byteOffset":79964,
			"target":34962
		},
		{
			"buffer":0,
			"byteLength":11520,
			"byteOffset":106284,
			"target":34963
		}
	],
	"buffers":[
		{
			"byteLength":117804,
			"uri":"capsule_top.bin"
		}
	]
}
