{
	"asset":{
		"generator":"Khronos glTF Blender I/O v4.0.44",
		"version":"2.0"
	},
	"scene":0,
	"scenes":[
		{
			"name":"Scene",
			"nodes":[
				1
			]
		}
	],
	"nodes":[
		{
			"mesh":0,
			"name":"Sphere",
			"rotation":[
				0,
				0,
				1,
				7.549790126404332e-08
			],
			"scale":[
				-0.9828660488128662,
				-0.2545369863510132,
				-0.9913499355316162
			],
			"translation":[
				0.0004988005384802818,
				1.2613868713378906,
				0.015953660011291504
			]
		},
		{
			"children":[
				0
			],
			"mesh":1,
			"name":"Cylinder.001",
			"translation":[
				-0.014001431874930859,
				1.2886219024658203,
				0.28683990240097046
			]
		}
	],
	"animations":[
		{
			"channels":[
				{
					"sampler":0,
					"target":{
						"node":1,
						"path":"translation"
					}
				},
				{
					"sampler":1,
					"target":{
						"node":1,
						"path":"rotation"
					}
				},
				{
					"sampler":2,
					"target":{
						"node":1,
						"path":"scale"
					}
				}
			],
			"name":"Action",
			"samplers":[
				{
					"input":8,
					"interpolation":"LINEAR",
					"output":9
				},
				{
					"input":8,
					"interpolation":"LINEAR",
					"output":10
				},
				{
					"input":8,
					"interpolation":"LINEAR",
					"output":11
				}
			]
		}
	],
	"materials":[
		{
			"doubleSided":true,
			"name":"Material.002",
			"pbrMetallicRoughness":{
				"baseColorFactor":[
					0.8001648187637329,
					0.4765918254852295,
					0,
					1
				],
				"metallicFactor":0,
				"roughnessFactor":0.5
			}
		}
	],
	"meshes":[
		{
			"name":"Sphere",
			"primitives":[
				{
					"attributes":{
						"POSITION":0,
						"NORMAL":1,
						"TEXCOORD_0":2
					},
					"indices":3,
					"material":0
				}
			]
		},
		{
			"name":"Cylinder.002",
			"primitives":[
				{
					"attributes":{
						"POSITION":4,
						"NORMAL":5,
						"TEXCOORD_0":6
					},
					"indices":7
				}
			]
		}
	],
	"accessors":[
		{
			"bufferView":0,
			"componentType":5126,
			"count":17920,
			"max":[
				0.9808386564254761,
				0.5100239515304565,
				0.9960666298866272
			],
			"min":[
				-0.9859105348587036,
				-0.16860464215278625,
				-0.9699007272720337
			],
			"type":"VEC3"
		},
		{
			"bufferView":1,
			"componentType":5126,
			"count":17920,
			"type":"VEC3"
		},
		{
			"bufferView":2,
			"componentType":5126,
			"count":17920,
			"type":"VEC2"
		},
		{
			"bufferView":3,
			"componentType":5123,
			"count":26880,
			"type":"SCALAR"
		},
		{
			"bufferView":4,
			"componentType":5126,
			"count":54342,
			"max":[
				0.9858819246292114,
				1.2327228784561157,
				0.9858819246292114
			],
			"min":[
				-1.564988136291504,
				-0.9995467066764832,
				-0.985882043838501
			],
			"type":"VEC3"
		},
		{
			"bufferView":5,
			"componentType":5126,
			"count":54342,
			"type":"VEC3"
		},
		{
			"bufferView":6,
			"componentType":5126,
			"count":54342,
			"type":"VEC2"
		},
		{
			"bufferView":7,
			"componentType":5123,
			"count":87624,
			"type":"SCALAR"
		},
		{
			"bufferView":8,
			"componentType":5126,
			"count":1,
			"max":[
				13.416666666666666
			],
			"min":[
				13.416666666666666
			],
			"type":"SCALAR"
		},
		{
			"bufferView":9,
			"componentType":5126,
			"count":1,
			"type":"VEC3"
		},
		{
			"bufferView":10,
			"componentType":5126,
			"count":1,
			"type":"VEC4"
		},
		{
			"bufferView":11,
			"componentType":5126,
			"count":1,
			"type":"VEC3"
		}
	],
	"bufferViews":[
		{
			"buffer":0,
			"byteLength":215040,
			"byteOffset":0,
			"target":34962
		},
		{
			"buffer":0,
			"byteLength":215040,
			"byteOffset":215040,
			"target":34962
		},
		{
			"buffer":0,
			"byteLength":143360,
			"byteOffset":430080,
			"target":34962
		},
		{
			"buffer":0,
			"byteLength":53760,
			"byteOffset":573440,
			"target":34963
		},
		{
			"buffer":0,
			"byteLength":652104,
			"byteOffset":627200,
			"target":34962
		},
		{
			"buffer":0,
			"byteLength":652104,
			"byteOffset":1279304,
			"target":34962
		},
		{
			"buffer":0,
			"byteLength":434736,
			"byteOffset":1931408,
			"target":34962
		},
		{
			"buffer":0,
			"byteLength":175248,
			"byteOffset":2366144,
			"target":34963
		},
		{
			"buffer":0,
			"byteLength":4,
			"byteOffset":2541392
		},
		{
			"buffer":0,
			"byteLength":12,
			"byteOffset":2541396
		},
		{
			"buffer":0,
			"byteLength":16,
			"byteOffset":2541408
		},
		{
			"buffer":0,
			"byteLength":12,
			"byteOffset":2541424
		}
	],
	"buffers":[
		{
			"byteLength":2541436,
			"uri":"beer.bin"
		}
	]
}
