{
	"asset":{
		"generator":"Khronos glTF Blender I/O v4.1.63",
		"version":"2.0"
	},
	"extensionsUsed":[
		"KHR_texture_transform"
	],
	"extensionsRequired":[
		"KHR_texture_transform"
	],
	"scene":0,
	"scenes":[
		{
			"name":"Scene",
			"nodes":[
				0
			]
		}
	],
	"nodes":[
		{
			"mesh":0,
			"name":"Plane",
			"scale":[
				-71.5665512084961,
				-23.82668685913086,
				-71.5515365600586
			],
			"translation":[
				0,
				32.71684646606445,
				0.14929263293743134
			]
		}
	],
	"materials":[
		{
			"doubleSided":true,
			"name":"Material",
			"pbrMetallicRoughness":{
				"baseColorTexture":{
					"extensions":{
						"KHR_texture_transform":{
							"offset":[
								0,
								-4
							],
							"scale":[
								5,
								5
							]
						}
					},
					"index":0
				},
				"metallicFactor":0,
				"roughnessFactor":0.5
			}
		}
	],
	"meshes":[
		{
			"name":"Plane",
			"primitives":[
				{
					"attributes":{
						"POSITION":0,
						"NORMAL":1,
						"TEXCOORD_0":2
					},
					"indices":3,
					"material":0
				}
			]
		}
	],
	"textures":[
		{
			"sampler":0,
			"source":0
		}
	],
	"images":[
		{
			"mimeType":"image/jpeg",
			"name":"seamless_beach_sand_texture_by_hhh316_d4hr45u.jpg",
			"uri":"texture/seamless_beach_sand_texture_by_hhh316_d4hr45u.jpg"
		}
	],
	"accessors":[
		{
			"bufferView":0,
			"componentType":5126,
			"count":16508,
			"max":[
				2.508402109146118,
				1.329318642616272,
				2.508402109146118
			],
			"min":[
				-2.508402109146118,
				0.7107140421867371,
				-2.508402109146118
			],
			"type":"VEC3"
		},
		{
			"bufferView":1,
			"componentType":5126,
			"count":16508,
			"type":"VEC3"
		},
		{
			"bufferView":2,
			"componentType":5126,
			"count":16508,
			"type":"VEC2"
		},
		{
			"bufferView":3,
			"componentType":5123,
			"count":24696,
			"type":"SCALAR"
		}
	],
	"bufferViews":[
		{
			"buffer":0,
			"byteLength":198096,
			"byteOffset":0,
			"target":34962
		},
		{
			"buffer":0,
			"byteLength":198096,
			"byteOffset":198096,
			"target":34962
		},
		{
			"buffer":0,
			"byteLength":132064,
			"byteOffset":396192,
			"target":34962
		},
		{
			"buffer":0,
			"byteLength":49392,
			"byteOffset":528256,
			"target":34963
		}
	],
	"samplers":[
		{
			"magFilter":9729,
			"minFilter":9987
		}
	],
	"buffers":[
		{
			"byteLength":577648,
			"uri":"terrain.bin"
		}
	]
}
