{
	"asset":{
		"generator":"Khronos glTF Blender I/O v4.0.44",
		"version":"2.0"
	},
	"scene":0,
	"scenes":[
		{
			"name":"Scene",
			"nodes":[
				0
			]
		}
	],
	"nodes":[
		{
			"mesh":0,
			"name":"Plane",
			"scale":[
				-23.82668685913086,
				-23.82668685913086,
				-23.82668685913086
			],
			"translation":[
				0,
				32.12786865234375,
				0.14929307997226715
			]
		}
	],
	"materials":[
		{
			"doubleSided":true,
			"name":"Material",
			"pbrMetallicRoughness":{
				"baseColorTexture":{
					"index":0
				},
				"metallicFactor":0,
				"roughnessFactor":0.5
			}
		}
	],
	"meshes":[
		{
			"name":"Plane",
			"primitives":[
				{
					"attributes":{
						"POSITION":0,
						"NORMAL":1,
						"TEXCOORD_0":2
					},
					"indices":3,
					"material":0
				}
			]
		}
	],
	"textures":[
		{
			"sampler":0,
			"source":0
		}
	],
	"images":[
		{
			"mimeType":"image/jpeg",
			"name":"seamless_beach_sand_texture_by_hhh316_d4hr45u",
			"uri":"texture/seamless_beach_sand_texture_by_hhh316_d4hr45u.jpg"
		}
	],
	"accessors":[
		{
			"bufferView":0,
			"componentType":5126,
			"count":65536,
			"max":[
				2.543872594833374,
				1.335335612297058,
				2.543872594833374
			],
			"min":[
				-2.543872594833374,
				0.7051124572753906,
				-2.543872594833374
			],
			"type":"VEC3"
		},
		{
			"bufferView":1,
			"componentType":5126,
			"count":65536,
			"type":"VEC3"
		},
		{
			"bufferView":2,
			"componentType":5126,
			"count":65536,
			"type":"VEC2"
		},
		{
			"bufferView":3,
			"componentType":5125,
			"count":98304,
			"type":"SCALAR"
		}
	],
	"bufferViews":[
		{
			"buffer":0,
			"byteLength":786432,
			"byteOffset":0,
			"target":34962
		},
		{
			"buffer":0,
			"byteLength":786432,
			"byteOffset":786432,
			"target":34962
		},
		{
			"buffer":0,
			"byteLength":524288,
			"byteOffset":1572864,
			"target":34962
		},
		{
			"buffer":0,
			"byteLength":393216,
			"byteOffset":2097152,
			"target":34963
		}
	],
	"samplers":[
		{
			"magFilter":9729,
			"minFilter":9987
		}
	],
	"buffers":[
		{
			"byteLength":2490368,
			"uri":"terrain.bin"
		}
	]
}
