{
	"asset":{
		"generator":"Khronos glTF Blender I/O v4.0.44",
		"version":"2.0"
	},
	"extensionsUsed":[
		"KHR_texture_transform"
	],
	"extensionsRequired":[
		"KHR_texture_transform"
	],
	"scene":0,
	"scenes":[
		{
			"name":"Scene",
			"nodes":[
				0,
				1,
				2,
				3,
				4,
				5
			]
		}
	],
	"nodes":[
		{
			"mesh":0,
			"name":"Cube.004",
			"rotation":[
				-0.7028809785842896,
				-0.04328155145049095,
				0.2728425860404968,
				0.6554708480834961
			],
			"translation":[
				34.31864547729492,
				6.223809242248535,
				-57.60106658935547
			]
		},
		{
			"mesh":1,
			"name":"Plane.001",
			"rotation":[
				0.70710688829422,
				0,
				0,
				0.7071066498756409
			],
			"scale":[
				18.75,
				18.750001907348633,
				18.750001907348633
			],
			"translation":[
				0,
				13.45238208770752,
				0
			]
		},
		{
			"mesh":2,
			"name":"Plane",
			"scale":[
				-71.5665512084961,
				-23.82668685913086,
				-71.5515365600586
			],
			"translation":[
				0,
				32.71684646606445,
				0.14929263293743134
			]
		},
		{
			"mesh":3,
			"name":"Cube",
			"translation":[
				77.78528594970703,
				-18.269256591796875,
				0.1492866724729538
			]
		},
		{
			"mesh":4,
			"name":"Cube.001",
			"rotation":[
				-0.0871032252907753,
				0.03065609745681286,
				-0.05393203720450401,
				0.9942658543586731
			],
			"scale":[
				1.489926815032959,
				1.006412148475647,
				1.0030616521835327
			],
			"translation":[
				-116.7393798828125,
				-21.024755477905273,
				-76.94023132324219
			]
		},
		{
			"mesh":5,
			"name":"Cube.003",
			"rotation":[
				0.040111392736434937,
				-0.44915544986724854,
				-0.05594808980822563,
				0.8907976746559143
			],
			"scale":[
				2.6096982955932617,
				1,
				1
			],
			"translation":[
				-106.62184143066406,
				-13.662257194519043,
				61.734458923339844
			]
		}
	],
	"materials":[
		{
			"doubleSided":true,
			"name":"Material.002",
			"pbrMetallicRoughness":{
				"baseColorFactor":[
					0.16050195693969727,
					0.2166656106710434,
					0.2585451900959015,
					1
				],
				"metallicFactor":0.25590550899505615,
				"roughnessFactor":0.5078740119934082
			}
		},
		{
			"doubleSided":true,
			"name":"Material",
			"pbrMetallicRoughness":{
				"baseColorTexture":{
					"extensions":{
						"KHR_texture_transform":{
							"offset":[
								0,
								-4
							],
							"scale":[
								5,
								5
							]
						}
					},
					"index":0
				},
				"metallicFactor":0,
				"roughnessFactor":0.5
			}
		},
		{
			"doubleSided":true,
			"name":"Material.001",
			"pbrMetallicRoughness":{
				"baseColorFactor":[
					0.16205650568008423,
					0.2158510833978653,
					0.25816428661346436,
					1
				],
				"metallicFactor":0.25600001215934753,
				"roughnessFactor":0.5180000066757202
			}
		}
	],
	"meshes":[
		{
			"name":"Cube.004",
			"primitives":[
				{
					"attributes":{
						"POSITION":0,
						"NORMAL":1,
						"TEXCOORD_0":2
					},
					"indices":3,
					"material":0
				}
			]
		},
		{
			"name":"Plane.001",
			"primitives":[
				{
					"attributes":{
						"POSITION":4,
						"NORMAL":5,
						"TEXCOORD_0":6
					},
					"indices":7
				}
			]
		},
		{
			"name":"Plane",
			"primitives":[
				{
					"attributes":{
						"POSITION":8,
						"NORMAL":9,
						"TEXCOORD_0":10
					},
					"indices":11,
					"material":1
				}
			]
		},
		{
			"name":"Cube",
			"primitives":[
				{
					"attributes":{
						"POSITION":12,
						"NORMAL":13,
						"TEXCOORD_0":14
					},
					"indices":15,
					"material":2
				}
			]
		},
		{
			"name":"Cube.001",
			"primitives":[
				{
					"attributes":{
						"POSITION":16,
						"NORMAL":17,
						"TEXCOORD_0":18
					},
					"indices":15,
					"material":2
				}
			]
		},
		{
			"name":"Cube.003",
			"primitives":[
				{
					"attributes":{
						"POSITION":19,
						"NORMAL":20,
						"TEXCOORD_0":21
					},
					"indices":15,
					"material":2
				}
			]
		}
	],
	"textures":[
		{
			"sampler":0,
			"source":0
		}
	],
	"images":[
		{
			"mimeType":"image/jpeg",
			"name":"seamless_beach_sand_texture_by_hhh316_d4hr45u",
			"uri":"texture/seamless_beach_sand_texture_by_hhh316_d4hr45u.jpg"
		}
	],
	"accessors":[
		{
			"bufferView":0,
			"componentType":5126,
			"count":208,
			"max":[
				1.0133558511734009,
				2.493303060531616,
				1.0899358987808228
			],
			"min":[
				-0.9881731271743774,
				-0.6440341472625732,
				-1.13265860080719
			],
			"type":"VEC3"
		},
		{
			"bufferView":1,
			"componentType":5126,
			"count":208,
			"type":"VEC3"
		},
		{
			"bufferView":2,
			"componentType":5126,
			"count":208,
			"type":"VEC2"
		},
		{
			"bufferView":3,
			"componentType":5123,
			"count":312,
			"type":"SCALAR"
		},
		{
			"bufferView":4,
			"componentType":5126,
			"count":523,
			"max":[
				0.9933992624282837,
				0.9907798171043396,
				0.5225597023963928
			],
			"min":[
				-0.9933995008468628,
				-0.9995721578598022,
				-0.0066896905191242695
			],
			"type":"VEC3"
		},
		{
			"bufferView":5,
			"componentType":5126,
			"count":523,
			"type":"VEC3"
		},
		{
			"bufferView":6,
			"componentType":5126,
			"count":523,
			"type":"VEC2"
		},
		{
			"bufferView":7,
			"componentType":5123,
			"count":900,
			"type":"SCALAR"
		},
		{
			"bufferView":8,
			"componentType":5126,
			"count":16508,
			"max":[
				2.508402109146118,
				1.329318642616272,
				2.508402109146118
			],
			"min":[
				-2.508402109146118,
				0.7107140421867371,
				-2.508402109146118
			],
			"type":"VEC3"
		},
		{
			"bufferView":9,
			"componentType":5126,
			"count":16508,
			"type":"VEC3"
		},
		{
			"bufferView":10,
			"componentType":5126,
			"count":16508,
			"type":"VEC2"
		},
		{
			"bufferView":11,
			"componentType":5123,
			"count":24696,
			"type":"SCALAR"
		},
		{
			"bufferView":12,
			"componentType":5126,
			"count":512,
			"max":[
				2.4383769035339355,
				29.302488327026367,
				2.4198474884033203
			],
			"min":[
				-2.3558380603790283,
				27.56199073791504,
				-2.342482328414917
			],
			"type":"VEC3"
		},
		{
			"bufferView":13,
			"componentType":5126,
			"count":512,
			"type":"VEC3"
		},
		{
			"bufferView":14,
			"componentType":5126,
			"count":512,
			"type":"VEC2"
		},
		{
			"bufferView":15,
			"componentType":5123,
			"count":768,
			"type":"SCALAR"
		},
		{
			"bufferView":16,
			"componentType":5126,
			"count":512,
			"max":[
				2.4383769035339355,
				29.302488327026367,
				2.4198474884033203
			],
			"min":[
				-2.3558380603790283,
				27.56199073791504,
				-2.342482328414917
			],
			"type":"VEC3"
		},
		{
			"bufferView":17,
			"componentType":5126,
			"count":512,
			"type":"VEC3"
		},
		{
			"bufferView":18,
			"componentType":5126,
			"count":512,
			"type":"VEC2"
		},
		{
			"bufferView":19,
			"componentType":5126,
			"count":512,
			"max":[
				2.4383769035339355,
				29.302488327026367,
				2.4198474884033203
			],
			"min":[
				-2.3558380603790283,
				27.56199073791504,
				-2.342482328414917
			],
			"type":"VEC3"
		},
		{
			"bufferView":20,
			"componentType":5126,
			"count":512,
			"type":"VEC3"
		},
		{
			"bufferView":21,
			"componentType":5126,
			"count":512,
			"type":"VEC2"
		}
	],
	"bufferViews":[
		{
			"buffer":0,
			"byteLength":2496,
			"byteOffset":0,
			"target":34962
		},
		{
			"buffer":0,
			"byteLength":2496,
			"byteOffset":2496,
			"target":34962
		},
		{
			"buffer":0,
			"byteLength":1664,
			"byteOffset":4992,
			"target":34962
		},
		{
			"buffer":0,
			"byteLength":624,
			"byteOffset":6656,
			"target":34963
		},
		{
			"buffer":0,
			"byteLength":6276,
			"byteOffset":7280,
			"target":34962
		},
		{
			"buffer":0,
			"byteLength":6276,
			"byteOffset":13556,
			"target":34962
		},
		{
			"buffer":0,
			"byteLength":4184,
			"byteOffset":19832,
			"target":34962
		},
		{
			"buffer":0,
			"byteLength":1800,
			"byteOffset":24016,
			"target":34963
		},
		{
			"buffer":0,
			"byteLength":198096,
			"byteOffset":25816,
			"target":34962
		},
		{
			"buffer":0,
			"byteLength":198096,
			"byteOffset":223912,
			"target":34962
		},
		{
			"buffer":0,
			"byteLength":132064,
			"byteOffset":422008,
			"target":34962
		},
		{
			"buffer":0,
			"byteLength":49392,
			"byteOffset":554072,
			"target":34963
		},
		{
			"buffer":0,
			"byteLength":6144,
			"byteOffset":603464,
			"target":34962
		},
		{
			"buffer":0,
			"byteLength":6144,
			"byteOffset":609608,
			"target":34962
		},
		{
			"buffer":0,
			"byteLength":4096,
			"byteOffset":615752,
			"target":34962
		},
		{
			"buffer":0,
			"byteLength":1536,
			"byteOffset":619848,
			"target":34963
		},
		{
			"buffer":0,
			"byteLength":6144,
			"byteOffset":621384,
			"target":34962
		},
		{
			"buffer":0,
			"byteLength":6144,
			"byteOffset":627528,
			"target":34962
		},
		{
			"buffer":0,
			"byteLength":4096,
			"byteOffset":633672,
			"target":34962
		},
		{
			"buffer":0,
			"byteLength":6144,
			"byteOffset":637768,
			"target":34962
		},
		{
			"buffer":0,
			"byteLength":6144,
			"byteOffset":643912,
			"target":34962
		},
		{
			"buffer":0,
			"byteLength":4096,
			"byteOffset":650056,
			"target":34962
		}
	],
	"samplers":[
		{
			"magFilter":9729,
			"minFilter":9987
		}
	],
	"buffers":[
		{
			"byteLength":654152,
			"uri":"terrain.bin"
		}
	]
}
