{
	"asset":{
		"generator":"Khronos glTF Blender I/O v4.0.44",
		"version":"2.0"
	},
	"scene":0,
	"scenes":[
		{
			"name":"Scene",
			"nodes":[
				0
			]
		}
	],
	"nodes":[
		{
			"mesh":0,
			"name":"Cube"
		}
	],
	"materials":[
		{
			"doubleSided":true,
			"name":"Material.001",
			"pbrMetallicRoughness":{
				"baseColorFactor":[
					0.43346813321113586,
					0.674012303352356,
					0.8008760809898376,
					1
				],
				"metallicFactor":0
			}
		}
	],
	"meshes":[
		{
			"name":"Cube",
			"primitives":[
				{
					"attributes":{
						"POSITION":0,
						"NORMAL":1,
						"TEXCOORD_0":2
					},
					"indices":3,
					"material":0
				}
			]
		}
	],
	"accessors":[
		{
			"bufferView":0,
			"componentType":5126,
			"count":12192,
			"max":[
				0.7406764030456543,
				0.8107079267501831,
				0.8034101724624634
			],
			"min":[
				-0.8986636400222778,
				-0.6714004278182983,
				-0.7993600964546204
			],
			"type":"VEC3"
		},
		{
			"bufferView":1,
			"componentType":5126,
			"count":12192,
			"type":"VEC3"
		},
		{
			"bufferView":2,
			"componentType":5126,
			"count":12192,
			"type":"VEC2"
		},
		{
			"bufferView":3,
			"componentType":5123,
			"count":18288,
			"type":"SCALAR"
		}
	],
	"bufferViews":[
		{
			"buffer":0,
			"byteLength":146304,
			"byteOffset":0,
			"target":34962
		},
		{
			"buffer":0,
			"byteLength":146304,
			"byteOffset":146304,
			"target":34962
		},
		{
			"buffer":0,
			"byteLength":97536,
			"byteOffset":292608,
			"target":34962
		},
		{
			"buffer":0,
			"byteLength":36576,
			"byteOffset":390144,
			"target":34963
		}
	],
	"buffers":[
		{
			"byteLength":426720,
			"uri":"stone2.bin"
		}
	]
}
