{
	"asset":{
		"generator":"Khronos glTF Blender I/O v4.0.44",
		"version":"2.0"
	},
	"scene":0,
	"scenes":[
		{
			"name":"Scene",
			"nodes":[
				0
			]
		}
	],
	"nodes":[
		{
			"mesh":0,
			"name":"Plane.001",
			"rotation":[
				0.7071068286895752,
				0,
				0,
				0.7071068286895752
			],
			"scale":[
				18.75,
				18.75,
				18.75
			]
		}
	],
	"meshes":[
		{
			"name":"Plane.001",
			"primitives":[
				{
					"attributes":{
						"POSITION":0,
						"NORMAL":1,
						"TEXCOORD_0":2
					},
					"indices":3
				}
			]
		}
	],
	"accessors":[
		{
			"bufferView":0,
			"componentType":5126,
			"count":481,
			"max":[
				0.9933992624282837,
				0.9907798171043396,
				0.5225597023963928
			],
			"min":[
				-0.9933995008468628,
				-0.9995721578598022,
				-0.0066896905191242695
			],
			"type":"VEC3"
		},
		{
			"bufferView":1,
			"componentType":5126,
			"count":481,
			"type":"VEC3"
		},
		{
			"bufferView":2,
			"componentType":5126,
			"count":481,
			"type":"VEC2"
		},
		{
			"bufferView":3,
			"componentType":5123,
			"count":900,
			"type":"SCALAR"
		}
	],
	"bufferViews":[
		{
			"buffer":0,
			"byteLength":5772,
			"byteOffset":0,
			"target":34962
		},
		{
			"buffer":0,
			"byteLength":5772,
			"byteOffset":5772,
			"target":34962
		},
		{
			"buffer":0,
			"byteLength":3848,
			"byteOffset":11544,
			"target":34962
		},
		{
			"buffer":0,
			"byteLength":1800,
			"byteOffset":15392,
			"target":34963
		}
	],
	"buffers":[
		{
			"byteLength":17192,
			"uri":"capsule_bottom.bin"
		}
	]
}
